<?xml version="1.0" encoding="UTF-8" standalone="no"?><svg xmlns="http://www.w3.org/2000/svg" xmlns:xlink="http://www.w3.org/1999/xlink" contentScriptType="application/ecmascript" contentStyleType="text/css" height="357px" preserveAspectRatio="none" style="width:465px;height:357px;" version="1.1" viewBox="0 0 465 357" width="465px" zoomAndPan="magnify"><defs><filter height="300%" id="f1qkttxpelwmt" width="300%" x="-1" y="-1"><feGaussianBlur result="blurOut" stdDeviation="2.0"/><feColorMatrix in="blurOut" result="blurOut2" type="matrix" values="0 0 0 0 0 0 0 0 0 0 0 0 0 0 0 0 0 0 .4 0"/><feOffset dx="4.0" dy="4.0" in="blurOut2" result="blurOut3"/><feBlend in="SourceGraphic" in2="blurOut3" mode="normal"/></filter></defs><g><text fill="#000000" font-family="sans-serif" font-size="14" font-weight="bold" lengthAdjust="spacingAndGlyphs" textLength="74" x="192.75" y="22.9951">call flows</text><rect fill="#FFFFFF" filter="url(#f1qkttxpelwmt)" height="129.5313" style="stroke: #A80036; stroke-width: 1.0;" width="10" x="126.5" y="99.7266"/><rect fill="#FFFFFF" filter="url(#f1qkttxpelwmt)" height="128.3984" style="stroke: #A80036; stroke-width: 1.0;" width="10" x="248.5" y="170.9922"/><line style="stroke: #A80036; stroke-width: 1.0; stroke-dasharray: 5.0,5.0;" x1="25" x2="25" y1="68.5938" y2="317.3906"/><line style="stroke: #A80036; stroke-width: 1.0; stroke-dasharray: 5.0,5.0;" x1="131" x2="131" y1="68.5938" y2="317.3906"/><line style="stroke: #A80036; stroke-width: 1.0; stroke-dasharray: 5.0,5.0;" x1="253.5" x2="253.5" y1="68.5938" y2="317.3906"/><line style="stroke: #A80036; stroke-width: 1.0; stroke-dasharray: 5.0,5.0;" x1="411.5" x2="411.5" y1="68.5938" y2="317.3906"/><rect fill="#FEFECE" filter="url(#f1qkttxpelwmt)" height="30.2969" style="stroke: #A80036; stroke-width: 1.5;" width="31" x="8" y="33.2969"/><text fill="#000000" font-family="sans-serif" font-size="14" lengthAdjust="spacingAndGlyphs" textLength="17" x="15" y="53.292">Aa</text><rect fill="#FEFECE" filter="url(#f1qkttxpelwmt)" height="30.2969" style="stroke: #A80036; stroke-width: 1.5;" width="31" x="8" y="316.3906"/><text fill="#000000" font-family="sans-serif" font-size="14" lengthAdjust="spacingAndGlyphs" textLength="17" x="15" y="336.3857">Aa</text><rect fill="#FEFECE" filter="url(#f1qkttxpelwmt)" height="30.2969" style="stroke: #A80036; stroke-width: 1.5;" width="33" x="113" y="33.2969"/><text fill="#000000" font-family="sans-serif" font-size="14" lengthAdjust="spacingAndGlyphs" textLength="19" x="120" y="53.292">Bb</text><rect fill="#FEFECE" filter="url(#f1qkttxpelwmt)" height="30.2969" style="stroke: #A80036; stroke-width: 1.5;" width="33" x="113" y="316.3906"/><text fill="#000000" font-family="sans-serif" font-size="14" lengthAdjust="spacingAndGlyphs" textLength="19" x="120" y="336.3857">Bb</text><rect fill="#FEFECE" filter="url(#f1qkttxpelwmt)" height="30.2969" style="stroke: #A80036; stroke-width: 1.5;" width="32" x="235.5" y="33.2969"/><text fill="#000000" font-family="sans-serif" font-size="14" lengthAdjust="spacingAndGlyphs" textLength="18" x="242.5" y="53.292">Cc</text><rect fill="#FEFECE" filter="url(#f1qkttxpelwmt)" height="30.2969" style="stroke: #A80036; stroke-width: 1.5;" width="32" x="235.5" y="316.3906"/><text fill="#000000" font-family="sans-serif" font-size="14" lengthAdjust="spacingAndGlyphs" textLength="18" x="242.5" y="336.3857">Cc</text><rect fill="#FEFECE" filter="url(#f1qkttxpelwmt)" height="30.2969" style="stroke: #A80036; stroke-width: 1.5;" width="34" x="392.5" y="33.2969"/><text fill="#000000" font-family="sans-serif" font-size="14" lengthAdjust="spacingAndGlyphs" textLength="20" x="399.5" y="53.292">Dd</text><rect fill="#FEFECE" filter="url(#f1qkttxpelwmt)" height="30.2969" style="stroke: #A80036; stroke-width: 1.5;" width="34" x="392.5" y="316.3906"/><text fill="#000000" font-family="sans-serif" font-size="14" lengthAdjust="spacingAndGlyphs" textLength="20" x="399.5" y="336.3857">Dd</text><rect fill="#FFFFFF" filter="url(#f1qkttxpelwmt)" height="129.5313" style="stroke: #A80036; stroke-width: 1.0;" width="10" x="126.5" y="99.7266"/><rect fill="#FFFFFF" filter="url(#f1qkttxpelwmt)" height="128.3984" style="stroke: #A80036; stroke-width: 1.0;" width="10" x="248.5" y="170.9922"/><polygon fill="#A80036" points="114.5,95.7266,124.5,99.7266,114.5,103.7266,118.5,99.7266" style="stroke: #A80036; stroke-width: 1.0;"/><line style="stroke: #A80036; stroke-width: 1.0;" x1="25.5" x2="120.5" y1="99.7266" y2="99.7266"/><text fill="#000000" font-family="sans-serif" font-size="13" lengthAdjust="spacingAndGlyphs" textLength="54" x="32.5" y="94.6606">sync call</text><line style="stroke: #A80036; stroke-width: 1.0;" x1="136.5" x2="178.5" y1="128.8594" y2="128.8594"/><line style="stroke: #A80036; stroke-width: 1.0;" x1="178.5" x2="178.5" y1="128.8594" y2="141.8594"/><line style="stroke: #A80036; stroke-width: 1.0;" x1="137.5" x2="178.5" y1="141.8594" y2="141.8594"/><polygon fill="#A80036" points="147.5,137.8594,137.5,141.8594,147.5,145.8594,143.5,141.8594" style="stroke: #A80036; stroke-width: 1.0;"/><text fill="#000000" font-family="sans-serif" font-size="13" lengthAdjust="spacingAndGlyphs" textLength="90" x="143.5" y="123.7935">in process call</text><line style="stroke: #A80036; stroke-width: 1.0;" x1="246.5" x2="236.5" y1="170.9922" y2="166.9922"/><line style="stroke: #A80036; stroke-width: 1.0;" x1="246.5" x2="236.5" y1="170.9922" y2="174.9922"/><line style="stroke: #A80036; stroke-width: 1.0;" x1="136.5" x2="247.5" y1="170.9922" y2="170.9922"/><text fill="#000000" font-family="sans-serif" font-size="13" lengthAdjust="spacingAndGlyphs" textLength="62" x="143.5" y="165.9263">async call</text><polygon fill="#A80036" points="147.5,196.125,137.5,200.125,147.5,204.125,143.5,200.125" style="stroke: #A80036; stroke-width: 1.0;"/><line style="stroke: #A80036; stroke-width: 1.0; stroke-dasharray: 2.0,2.0;" x1="141.5" x2="247.5" y1="200.125" y2="200.125"/><text fill="#000000" font-family="sans-serif" font-size="13" lengthAdjust="spacingAndGlyphs" textLength="88" x="153.5" y="195.0591">202 Accepted</text><polygon fill="#A80036" points="36.5,225.2578,26.5,229.2578,36.5,233.2578,32.5,229.2578" style="stroke: #A80036; stroke-width: 1.0;"/><line style="stroke: #A80036; stroke-width: 1.0; stroke-dasharray: 2.0,2.0;" x1="30.5" x2="130.5" y1="229.2578" y2="229.2578"/><text fill="#000000" font-family="sans-serif" font-size="13" lengthAdjust="spacingAndGlyphs" textLength="77" x="42.5" y="224.1919">return value</text><polygon fill="#A80036" points="399.5,254.3906,409.5,258.3906,399.5,262.3906,403.5,258.3906" style="stroke: #A80036; stroke-width: 1.0;"/><line style="stroke: #A80036; stroke-width: 1.0;" x1="258.5" x2="405.5" y1="258.3906" y2="258.3906"/><text fill="#000000" font-family="sans-serif" font-size="13" lengthAdjust="spacingAndGlyphs" textLength="129" x="265.5" y="253.3247">background process</text><line style="stroke: #A80036; stroke-width: 1.0;" x1="411.5" x2="453.5" y1="272.3906" y2="272.3906"/><line style="stroke: #A80036; stroke-width: 1.0;" x1="453.5" x2="453.5" y1="272.3906" y2="285.3906"/><line style="stroke: #A80036; stroke-width: 1.0;" x1="412.5" x2="453.5" y1="285.3906" y2="285.3906"/><polygon fill="#A80036" points="422.5,281.3906,412.5,285.3906,422.5,289.3906,418.5,285.3906" style="stroke: #A80036; stroke-width: 1.0;"/><polygon fill="#A80036" points="264.5,295.3906,254.5,299.3906,264.5,303.3906,260.5,299.3906" style="stroke: #A80036; stroke-width: 1.0;"/><line style="stroke: #A80036; stroke-width: 1.0; stroke-dasharray: 2.0,2.0;" x1="258.5" x2="410.5" y1="299.3906" y2="299.3906"/><!--
@startuml
title call flows  

participant a as "Aa"
participant b as "Bb"
participant c as "Cc"
participant d as "Dd"

a->b: sync call  
activate b
b->b: in process call
b->>c: async call  
activate c  
c- ->b: 202 Accepted  
a<- -b: return value  
deactivate b
c->d: background process  
d->d:
c<- -d:
deactivate c
@enduml

PlantUML version 1.2019.07beta1(Unknown compile time)
(GPL source distribution)
Java Runtime: Java(TM) SE Runtime Environment
JVM: Java HotSpot(TM) 64-Bit Server VM
Java Version: 1.7.0_25-b15
Operating System: Linux
Default Encoding: UTF-8
Language: en
Country: US
--></g></svg>